<svg width="6898.2" height="2284.7" fill="#fff" version="1.0" viewBox="0 -410 7082.1 2170.4" xmlns="http://www.w3.org/2000/svg">
 <path d="m649.13 1611.2h-165.18c24.027-112.79 36.04-214.91 36.04-306.34v-1090.2c-2e-4 -113.46 10.178-197.89 30.534-253.28 20.356-55.394 60.066-104.28 119.13-146.66 59.065-42.379 132.98-63.569 221.75-63.571 105.45 1e-3 194.05 27.866 265.8 83.593 71.746 55.73 107.62 134.98 107.62 237.76-9e-4 120.13-57.064 218.58-171.19 295.33 170.19 80.09 255.28 205.9 255.28 377.42-1e-3 93.438-22.526 177.03-67.575 250.78-45.051 73.749-97.109 126.31-156.17 157.68-59.066 31.368-129.64 47.052-211.74 47.052-93.438 0-169.52-35.039-228.25-105.12v186.21c-3e-4 128.14-12.014 237.93-36.04 329.37zm36.04-605.67c52.058 86.096 124.8 129.14 218.24 129.14 90.1 0 156.17-32.87 198.22-98.61 42.046-65.74 63.069-145.66 63.07-239.77-8e-4 -72.08-13.85-145.66-41.546-220.75-27.698-75.083-63.238-132.31-106.62-171.69-40.045 10.012-76.085 15.017-108.12 15.017-67.409 7.5e-4 -101.11-17.686-101.11-53.059-4e-4 -32.035 28.364-48.053 85.094-48.053 35.372 8.6e-4 79.421 8.0098 132.15 24.027 47.385-80.088 71.078-167.18 71.079-261.29-8e-4 -84.092-18.521-148.5-55.562-193.21-37.042-44.715-85.262-67.073-144.66-67.075-47.386 1e-3 -87.932 13.349-121.64 40.044-33.704 26.698-56.897 58.566-69.577 95.606-12.681 37.042-19.021 97.61-19.021 181.7z" />
 <g stroke-linecap="round" stroke-width="189.82" style="paint-order:fill markers stroke" aria-label="ombadil">
  <path d="m2143.9 845.94q0 72.622-23.044 143.15-23.043 69.829-65.639 118.71-48.182 55.863-111.73 83.096-63.544 27.233-142.45 27.233-65.639 0-124.99-24.44-59.354-25.138-105.44-72.622-45.389-46.785-72.622-113.82-26.535-67.734-26.535-151.53 0-161.3 93.57-263.95 94.269-102.65 246.5-102.65 144.55 0 238.12 97.76 94.269 97.062 94.269 259.06zm-144.55 1.3966q0-52.371-10.474-110.33-10.474-58.656-31.423-99.157-22.345-43.294-58.656-69.13-36.311-26.535-88.682-26.535-53.768 0-92.174 26.535-37.707 26.535-61.449 72.622-22.345 42.595-31.423 97.062-9.0777 54.466-9.0777 105.44 0 67.035 10.474 124.29 11.173 56.561 34.914 101.25 23.742 44.69 59.354 70.527 36.311 25.138 89.381 25.138 87.286 0 138.26-84.493 50.975-84.493 50.975-233.23z"/>
  <path d="m3423.1 1197.2h-335.88v-46.087q16.061-1.3966 32.121-2.7932 16.759-1.3965 29.328-5.5862 19.552-6.2846 28.63-21.647 9.776-16.061 9.776-41.199v-355.43q0-72.622-33.518-111.73-32.819-39.802-82.398-39.802-34.216 0-64.242 10.474t-55.165 29.328q-20.25 15.362-34.216 33.518-13.267 17.457-20.25 29.328v397.32q0 24.44 8.3794 40.501 8.3795 15.362 28.63 23.742 16.061 6.2845 28.63 9.776 13.267 2.7931 34.216 4.1897v46.087h-328.89v-46.087q16.06-1.3966 30.724-2.7932 15.362-1.3965 27.932-5.5862 19.552-6.2846 28.63-21.647 9.776-16.061 9.776-41.199v-355.43q0-72.622-33.518-111.73-32.82-39.802-82.398-39.802-34.216 0-64.242 11.173-30.026 10.474-55.165 29.328-20.25 15.362-34.216 34.914-13.966 18.854-20.949 28.63v394.53q0 23.742 9.776 39.802t29.328 24.44q14.664 6.9829 30.026 10.474t34.216 4.888v46.087h-334.48v-46.087q16.061-1.3966 32.819-2.7932 17.457-1.3965 30.026-5.5862 19.552-6.2846 28.63-21.647 9.776-16.061 9.776-41.199v-428.05q0-22.345-10.474-39.802-9.776-18.155-27.931-30.725-13.268-8.3794-32.82-13.267-19.552-5.5863-40.501-6.9829v-45.389l230.43-15.362 9.776 9.776v98.458h4.888q17.457-17.457 42.596-41.199t46.785-38.406q24.44-16.759 60.751-27.931 37.009-11.173 79.605-11.173 67.035 0 115.22 36.311 48.182 35.613 69.13 86.587 25.138-24.44 43.992-42.595 19.552-18.854 50.975-39.802 26.535-18.155 62.148-29.328 36.311-11.173 80.303-11.173 87.286 0 138.26 57.259t50.975 175.97v349.84q0 24.44 8.3795 40.501 8.3794 15.362 28.63 23.742 16.061 6.2845 31.423 9.776 16.06 2.7931 35.613 4.1897z"/>
  <path d="m4202.4 852.23q0 155.02-97.76 260.46-97.76 105.44-226.94 105.44-56.561 0-111.73-17.457-54.466-17.457-102.65-46.785l-51.673 80.303-43.294-9.776q3.4914-51.673 4.888-124.29t1.3966-140.36v-681.53q0-23.742-11.173-47.483-10.474-23.742-27.233-34.216-13.267-9.0777-44.69-13.267-30.725-4.888-49.578-6.2846v-44.69l252.78-16.061 9.776 10.474v453.89l4.888 1.3966q43.294-46.087 94.269-69.13 51.673-23.043 101.25-23.043 127.09 0 212.28 100.55t85.191 261.86zm-145.94 4.888q0-51.673-11.173-105.44t-34.914-93.57q-23.742-40.501-62.148-65.639-38.406-25.138-92.174-25.138-48.88 0-85.889 19.552-36.311 18.854-65.639 51.673v400.82q4.1897 16.759 16.061 39.104 12.569 22.345 33.518 42.596 20.949 19.552 47.483 32.121 26.535 11.871 64.941 11.871 85.191 0 137.56-82.398 52.372-82.398 52.372-225.55z"/>
  <path d="m4956.6 1184.6q-32.819 11.871-57.958 18.854-24.44 7.6811-55.863 7.6811-54.466 0-87.286-25.138-32.121-25.837-41.199-74.717h-4.1897q-45.389 50.277-97.76 76.812-51.673 26.535-124.99 26.535-77.51 0-127.79-47.483-49.578-47.484-49.578-124.3 0-39.802 11.173-71.225 11.172-31.423 33.518-56.561 17.457-20.949 46.087-37.009 28.63-16.759 53.768-26.535 31.423-11.871 127.09-43.992 96.364-32.121 129.88-50.277v-69.13q0-9.0777-4.1897-34.914-3.4914-25.837-16.061-48.88-13.966-25.837-39.802-44.69-25.138-19.552-71.924-19.552-32.121 0-60.053 11.173-27.233 10.474-38.406 22.345 0 13.966 6.2846 41.199 6.9828 27.233 6.9828 50.277 0 24.44-22.345 44.69-21.647 20.25-60.751 20.25-34.914 0-51.673-24.44-16.061-25.138-16.061-55.863 0-32.121 22.345-61.449 23.043-29.328 59.354-52.371 31.423-19.552 76.113-32.819 44.69-13.966 87.286-13.966 58.656 0 101.95 8.3794 43.992 7.6811 79.605 34.216 35.613 25.837 53.768 70.527 18.854 43.992 18.854 113.82 0 99.855-2.0949 177.36-2.0948 76.811-2.0948 168.29 0 27.233 9.0777 43.294 9.776 16.061 29.328 27.233 10.474 6.2845 32.82 6.9828 23.043 0.6983 46.785 0.6983zm-243.7-368.7q-59.354 17.457-104.04 34.216-44.69 16.759-83.096 41.897-34.914 23.742-55.165 56.561-20.25 32.121-20.25 76.811 0 57.958 30.026 85.191 30.725 27.233 77.51 27.233 49.578 0 87.286-23.742 37.708-24.44 63.544-57.259z"/>
  <path d="m5779.1 1184.6-240.21 15.362-10.474-9.776v-64.242l-5.5863-1.3966q-36.311 40.501-90.079 66.337-53.07 25.837-109.63 25.837-58.656 0-113.82-25.837-54.466-26.535-94.967-74.018-41.199-48.182-65.639-115.92-23.742-67.734-23.742-149.43 0-74.717 25.837-141.75 25.837-67.035 71.225-117.31 42.596-46.785 104.04-74.717 62.148-27.931 126.39-27.931 48.182 0 94.269 12.569 46.785 11.871 80.303 30.725v-239.51q0-29.328-9.776-53.07-9.776-24.44-27.233-37.009-19.552-13.267-53.07-18.854-32.82-6.2846-71.225-9.0777v-43.294l281.41-16.061 10.474 10.474v928.72q0 24.44 9.0777 41.897 9.776 16.759 27.931 28.63 13.268 8.3794 38.406 10.474 25.138 2.0948 46.087 2.7931zm-252.08-120.8v-402.91q-5.5863-18.155-18.156-39.104-12.569-20.949-31.423-38.406-20.25-17.457-47.483-28.63-27.233-11.871-63.544-11.871-41.897 0-77.51 21.647-34.914 21.647-62.148 62.147-25.837 39.104-41.199 99.855-14.664 60.053-14.664 133.37 0 58.656 11.173 106.84 11.173 47.483 37.708 88.682 24.44 39.104 62.147 62.846 38.406 23.742 90.777 23.742 55.863 0 92.174-24.44 37.009-24.44 62.148-53.768z"/>
  <path d="m6180.7 1197.2h-333.08v-46.087q16.061-1.3966 32.819-2.7932 17.457-1.3965 30.026-5.5862 19.552-6.2846 28.63-21.647 9.776-16.061 9.776-41.199v-425.26q0-22.345-10.474-40.501-9.776-18.854-27.932-31.423-13.267-8.3794-38.406-13.966-25.138-6.2846-46.087-7.6812v-45.389l243-15.362 9.776 9.776v561.42q0 24.44 9.0777 40.501 9.776 16.061 30.026 23.742 15.362 6.2846 30.026 10.474 14.664 3.4914 32.82 4.888zm-87.984-968.52q0 39.802-26.535 69.829-25.836 29.328-64.242 29.328-35.613 0-62.147-27.931-25.837-28.63-25.837-64.941 0-38.406 25.837-67.035 26.535-28.63 62.147-28.63 39.802 0 64.941 27.233 25.837 26.535 25.837 62.147z"/>
  <path d="m6587.8 1197.2h-335.88v-46.087q16.06-1.3966 34.216-2.7932 18.155-2.0948 30.026-5.5862 19.552-6.2846 29.328-21.647 9.776-16.061 9.776-41.199v-797.44q0-25.138-11.173-46.785-10.474-22.345-27.931-34.914-12.569-8.3794-46.087-15.362t-53.768-8.3794v-44.69l259.06-16.061 9.776 10.474v944.78q0 24.44 9.0777 40.501 9.0778 15.362 29.328 23.742 15.362 6.9829 30.026 10.474 15.362 3.4914 34.216 4.888z"/>
 </g>
</svg>
